<mxfile host="app.diagrams.net" modified="2022-10-25T08:23:17.382Z" agent="5.0 (Windows NT 10.0; Win64; x64) AppleWebKit/537.36 (KHTML, like Gecko) Chrome/106.0.0.0 Safari/537.36 Edg/106.0.1370.52" etag="KF9hD9QicA-DONjQFNsv" version="20.5.1" type="github">
  <diagram id="gJyN8kmDTutiOd-ONgrE" name="Page-1">
    <mxGraphModel dx="1650" dy="898" grid="1" gridSize="10" guides="1" tooltips="1" connect="1" arrows="1" fold="1" page="1" pageScale="1" pageWidth="1169" pageHeight="827" math="0" shadow="0">
      <root>
        <mxCell id="0" />
        <mxCell id="1" parent="0" />
        <mxCell id="u0RIgtBWJ2dXWDYmUzBz-106" value="R" style="text;html=1;resizable=0;autosize=1;align=center;verticalAlign=middle;points=[];rounded=0;labelBackgroundColor=#FFFFFF;fillStyle=solid;strokeWidth=1;fontSize=10;" vertex="1" parent="1">
          <mxGeometry x="920" y="355" width="30" height="30" as="geometry" />
        </mxCell>
        <mxCell id="u0RIgtBWJ2dXWDYmUzBz-1" value="" style="rounded=0;whiteSpace=wrap;html=1;fillColor=#b1ddf0;strokeColor=#10739e;" vertex="1" parent="1">
          <mxGeometry x="180" y="90" width="490" height="120" as="geometry" />
        </mxCell>
        <mxCell id="u0RIgtBWJ2dXWDYmUzBz-5" value="" style="rounded=0;whiteSpace=wrap;html=1;fillColor=#b1ddf0;strokeColor=#10739e;" vertex="1" parent="1">
          <mxGeometry x="970" y="255" width="180" height="340" as="geometry" />
        </mxCell>
        <mxCell id="u0RIgtBWJ2dXWDYmUzBz-7" value="Actor" style="shape=umlActor;verticalLabelPosition=bottom;verticalAlign=top;html=1;" vertex="1" parent="1">
          <mxGeometry x="580" y="115" width="30" height="60" as="geometry" />
        </mxCell>
        <mxCell id="u0RIgtBWJ2dXWDYmUzBz-8" value="Actor" style="shape=umlActor;verticalLabelPosition=bottom;verticalAlign=top;html=1;" vertex="1" parent="1">
          <mxGeometry x="220" y="115" width="30" height="60" as="geometry" />
        </mxCell>
        <mxCell id="u0RIgtBWJ2dXWDYmUzBz-9" value="Actor" style="shape=umlActor;verticalLabelPosition=bottom;verticalAlign=top;html=1;" vertex="1" parent="1">
          <mxGeometry x="290" y="115" width="30" height="60" as="geometry" />
        </mxCell>
        <mxCell id="u0RIgtBWJ2dXWDYmUzBz-10" value="&lt;font style=&quot;font-size: 14px;&quot;&gt;&lt;b&gt;Customers&lt;/b&gt;&lt;/font&gt;" style="text;html=1;resizable=0;autosize=1;align=center;verticalAlign=middle;points=[];fillColor=none;strokeColor=none;rounded=0;" vertex="1" parent="1">
          <mxGeometry x="375" y="85" width="100" height="30" as="geometry" />
        </mxCell>
        <mxCell id="u0RIgtBWJ2dXWDYmUzBz-12" value="" style="ellipse;whiteSpace=wrap;html=1;aspect=fixed;labelBackgroundColor=#000000;fillStyle=solid;fillColor=#000000;" vertex="1" parent="1">
          <mxGeometry x="400" y="150" width="10" height="10" as="geometry" />
        </mxCell>
        <mxCell id="u0RIgtBWJ2dXWDYmUzBz-13" value="" style="ellipse;whiteSpace=wrap;html=1;aspect=fixed;labelBackgroundColor=#000000;fillStyle=solid;fillColor=#000000;" vertex="1" parent="1">
          <mxGeometry x="420" y="150" width="10" height="10" as="geometry" />
        </mxCell>
        <mxCell id="u0RIgtBWJ2dXWDYmUzBz-14" value="" style="ellipse;whiteSpace=wrap;html=1;aspect=fixed;labelBackgroundColor=#000000;fillStyle=solid;fillColor=#000000;" vertex="1" parent="1">
          <mxGeometry x="440" y="150" width="10" height="10" as="geometry" />
        </mxCell>
        <mxCell id="u0RIgtBWJ2dXWDYmUzBz-16" value="Credit card institutions" style="rounded=0;whiteSpace=wrap;html=1;labelBackgroundColor=#FFFFFF;fillStyle=solid;" vertex="1" parent="1">
          <mxGeometry x="1000" y="295" width="120" height="60" as="geometry" />
        </mxCell>
        <mxCell id="u0RIgtBWJ2dXWDYmUzBz-19" value="Online institutions (ie. Paypal)" style="rounded=0;whiteSpace=wrap;html=1;labelBackgroundColor=#FFFFFF;fillStyle=solid;" vertex="1" parent="1">
          <mxGeometry x="1000" y="365" width="120" height="60" as="geometry" />
        </mxCell>
        <mxCell id="u0RIgtBWJ2dXWDYmUzBz-20" value="Parcel Delivery" style="rounded=0;whiteSpace=wrap;html=1;labelBackgroundColor=#FFFFFF;fillStyle=solid;" vertex="1" parent="1">
          <mxGeometry x="1000" y="435" width="120" height="60" as="geometry" />
        </mxCell>
        <mxCell id="u0RIgtBWJ2dXWDYmUzBz-21" value="" style="rounded=0;whiteSpace=wrap;html=1;fillColor=#b1ddf0;strokeColor=#10739e;" vertex="1" parent="1">
          <mxGeometry x="100" y="280" width="810" height="260" as="geometry" />
        </mxCell>
        <mxCell id="u0RIgtBWJ2dXWDYmUzBz-23" value="External Service Providers" style="text;html=1;resizable=0;autosize=1;align=center;verticalAlign=middle;points=[];fillColor=none;strokeColor=none;rounded=0;labelBackgroundColor=#FFFFFF;fillStyle=solid;strokeWidth=1;" vertex="1" parent="1">
          <mxGeometry x="980" y="260" width="160" height="30" as="geometry" />
        </mxCell>
        <mxCell id="u0RIgtBWJ2dXWDYmUzBz-24" value="IT helpdesk/Tech support" style="rounded=0;whiteSpace=wrap;html=1;labelBackgroundColor=#FFFFFF;fillStyle=solid;" vertex="1" parent="1">
          <mxGeometry x="1000" y="505" width="120" height="60" as="geometry" />
        </mxCell>
        <mxCell id="u0RIgtBWJ2dXWDYmUzBz-27" value="" style="ellipse;whiteSpace=wrap;html=1;labelBackgroundColor=#FFFFFF;fillStyle=solid;strokeWidth=1;fillColor=#b1ddf0;strokeColor=#10739e;" vertex="1" parent="1">
          <mxGeometry x="180" y="575" width="700" height="150" as="geometry" />
        </mxCell>
        <mxCell id="u0RIgtBWJ2dXWDYmUzBz-35" value="" style="rounded=0;whiteSpace=wrap;html=1;labelBackgroundColor=#FFFFFF;fillStyle=solid;strokeWidth=1;" vertex="1" parent="1">
          <mxGeometry x="110" y="290" width="790" height="120" as="geometry" />
        </mxCell>
        <mxCell id="u0RIgtBWJ2dXWDYmUzBz-36" value="Chatbot" style="rounded=0;whiteSpace=wrap;html=1;labelBackgroundColor=#FFFFFF;fillStyle=solid;strokeWidth=1;" vertex="1" parent="1">
          <mxGeometry x="120" y="310" width="140" height="70" as="geometry" />
        </mxCell>
        <mxCell id="u0RIgtBWJ2dXWDYmUzBz-38" value="Personalise level service support" style="rounded=0;whiteSpace=wrap;html=1;labelBackgroundColor=#FFFFFF;fillStyle=solid;strokeWidth=1;" vertex="1" parent="1">
          <mxGeometry x="270" y="310" width="140" height="70" as="geometry" />
        </mxCell>
        <mxCell id="u0RIgtBWJ2dXWDYmUzBz-39" value="Customer account maintenance" style="rounded=0;whiteSpace=wrap;html=1;labelBackgroundColor=#FFFFFF;fillStyle=solid;strokeWidth=1;" vertex="1" parent="1">
          <mxGeometry x="420" y="310" width="140" height="70" as="geometry" />
        </mxCell>
        <mxCell id="u0RIgtBWJ2dXWDYmUzBz-42" value="&lt;font style=&quot;font-size: 14px;&quot;&gt;&lt;b&gt;Online Shop Server&lt;/b&gt;&lt;/font&gt;" style="text;html=1;resizable=0;autosize=1;align=center;verticalAlign=middle;points=[];fillColor=none;strokeColor=none;rounded=0;labelBackgroundColor=#FFFFFF;fillStyle=solid;strokeWidth=1;" vertex="1" parent="1">
          <mxGeometry x="425" y="385" width="150" height="30" as="geometry" />
        </mxCell>
        <mxCell id="u0RIgtBWJ2dXWDYmUzBz-43" value="" style="ellipse;whiteSpace=wrap;html=1;labelBackgroundColor=#FFFFFF;fillStyle=solid;strokeWidth=1;" vertex="1" parent="1">
          <mxGeometry x="270" y="440" width="440" height="90" as="geometry" />
        </mxCell>
        <mxCell id="u0RIgtBWJ2dXWDYmUzBz-44" value="Cart #1" style="ellipse;whiteSpace=wrap;html=1;labelBackgroundColor=#FFFFFF;fillStyle=solid;strokeWidth=1;" vertex="1" parent="1">
          <mxGeometry x="280" y="470" width="90" height="35" as="geometry" />
        </mxCell>
        <mxCell id="u0RIgtBWJ2dXWDYmUzBz-47" value="Cart #2" style="ellipse;whiteSpace=wrap;html=1;labelBackgroundColor=#FFFFFF;fillStyle=solid;strokeWidth=1;" vertex="1" parent="1">
          <mxGeometry x="375" y="470" width="90" height="35" as="geometry" />
        </mxCell>
        <mxCell id="u0RIgtBWJ2dXWDYmUzBz-51" value="" style="ellipse;whiteSpace=wrap;html=1;aspect=fixed;labelBackgroundColor=#000000;fillStyle=solid;fillColor=#000000;" vertex="1" parent="1">
          <mxGeometry x="480" y="475" width="10" height="10" as="geometry" />
        </mxCell>
        <mxCell id="u0RIgtBWJ2dXWDYmUzBz-52" value="" style="ellipse;whiteSpace=wrap;html=1;aspect=fixed;labelBackgroundColor=#000000;fillStyle=solid;fillColor=#000000;" vertex="1" parent="1">
          <mxGeometry x="510" y="475" width="10" height="10" as="geometry" />
        </mxCell>
        <mxCell id="u0RIgtBWJ2dXWDYmUzBz-53" value="" style="ellipse;whiteSpace=wrap;html=1;aspect=fixed;labelBackgroundColor=#000000;fillStyle=solid;fillColor=#000000;" vertex="1" parent="1">
          <mxGeometry x="495" y="475" width="10" height="10" as="geometry" />
        </mxCell>
        <mxCell id="u0RIgtBWJ2dXWDYmUzBz-63" value="" style="ellipse;whiteSpace=wrap;html=1;labelBackgroundColor=#FFFFFF;fillStyle=solid;strokeWidth=1;fontSize=10;" vertex="1" parent="1">
          <mxGeometry x="540" y="595" width="320" height="110" as="geometry" />
        </mxCell>
        <mxCell id="u0RIgtBWJ2dXWDYmUzBz-54" value="Cart #3" style="ellipse;whiteSpace=wrap;html=1;labelBackgroundColor=#FFFFFF;fillStyle=solid;strokeWidth=1;" vertex="1" parent="1">
          <mxGeometry x="550" y="467.5" width="90" height="35" as="geometry" />
        </mxCell>
        <mxCell id="u0RIgtBWJ2dXWDYmUzBz-55" value="&lt;font style=&quot;font-size: 14px;&quot;&gt;&lt;b&gt;Shopping Carts&lt;/b&gt;&lt;/font&gt;" style="text;html=1;resizable=0;autosize=1;align=center;verticalAlign=middle;points=[];fillColor=none;strokeColor=none;rounded=0;labelBackgroundColor=#FFFFFF;fillStyle=solid;strokeWidth=1;" vertex="1" parent="1">
          <mxGeometry x="435" y="490" width="130" height="30" as="geometry" />
        </mxCell>
        <mxCell id="u0RIgtBWJ2dXWDYmUzBz-32" value="Customer Data" style="ellipse;whiteSpace=wrap;html=1;labelBackgroundColor=#FFFFFF;fillStyle=solid;strokeWidth=1;" vertex="1" parent="1">
          <mxGeometry x="390" y="630" width="140" height="50" as="geometry" />
        </mxCell>
        <mxCell id="u0RIgtBWJ2dXWDYmUzBz-30" value="&lt;font style=&quot;font-size: 10px;&quot;&gt;Chatbot history&lt;/font&gt;" style="ellipse;whiteSpace=wrap;html=1;labelBackgroundColor=#FFFFFF;fillStyle=solid;strokeWidth=1;" vertex="1" parent="1">
          <mxGeometry x="245" y="630" width="140" height="50" as="geometry" />
        </mxCell>
        <mxCell id="u0RIgtBWJ2dXWDYmUzBz-64" value="Product availability &amp;amp; orders" style="text;html=1;resizable=0;autosize=1;align=center;verticalAlign=middle;points=[];fillColor=none;strokeColor=none;rounded=0;labelBackgroundColor=#FFFFFF;fillStyle=solid;strokeWidth=1;fontSize=10;" vertex="1" parent="1">
          <mxGeometry x="630" y="600" width="150" height="30" as="geometry" />
        </mxCell>
        <mxCell id="u0RIgtBWJ2dXWDYmUzBz-84" value="" style="endArrow=none;html=1;rounded=0;fontSize=10;exitX=0.104;exitY=1;exitDx=0;exitDy=0;exitPerimeter=0;" edge="1" parent="1">
          <mxGeometry relative="1" as="geometry">
            <mxPoint x="200.9599999999998" y="210" as="sourcePoint" />
            <mxPoint x="201" y="250" as="targetPoint" />
          </mxGeometry>
        </mxCell>
        <mxCell id="u0RIgtBWJ2dXWDYmUzBz-85" value="" style="verticalLabelPosition=bottom;verticalAlign=top;html=1;shape=mxgraph.flowchart.on-page_reference;labelBackgroundColor=#FFFFFF;fillStyle=solid;strokeWidth=1;fontSize=10;" vertex="1" parent="1">
          <mxGeometry x="190" y="250" width="20" height="20" as="geometry" />
        </mxCell>
        <mxCell id="u0RIgtBWJ2dXWDYmUzBz-88" value="" style="endArrow=classic;html=1;rounded=0;fontSize=10;exitX=0.5;exitY=1;exitDx=0;exitDy=0;exitPerimeter=0;" edge="1" parent="1" source="u0RIgtBWJ2dXWDYmUzBz-85">
          <mxGeometry width="50" height="50" relative="1" as="geometry">
            <mxPoint x="360" y="490" as="sourcePoint" />
            <mxPoint x="200" y="310" as="targetPoint" />
          </mxGeometry>
        </mxCell>
        <mxCell id="u0RIgtBWJ2dXWDYmUzBz-89" value="" style="endArrow=none;html=1;rounded=0;fontSize=10;exitX=0.104;exitY=1;exitDx=0;exitDy=0;exitPerimeter=0;" edge="1" parent="1">
          <mxGeometry relative="1" as="geometry">
            <mxPoint x="315.96000000000004" y="210" as="sourcePoint" />
            <mxPoint x="316" y="250" as="targetPoint" />
          </mxGeometry>
        </mxCell>
        <mxCell id="u0RIgtBWJ2dXWDYmUzBz-91" value="" style="endArrow=classic;html=1;rounded=0;fontSize=10;exitX=0.5;exitY=1;exitDx=0;exitDy=0;exitPerimeter=0;" edge="1" parent="1" source="u0RIgtBWJ2dXWDYmUzBz-90">
          <mxGeometry width="50" height="50" relative="1" as="geometry">
            <mxPoint x="475" y="490" as="sourcePoint" />
            <mxPoint x="315" y="310" as="targetPoint" />
          </mxGeometry>
        </mxCell>
        <mxCell id="u0RIgtBWJ2dXWDYmUzBz-92" value="" style="endArrow=none;html=1;rounded=0;fontSize=10;exitX=0.104;exitY=1;exitDx=0;exitDy=0;exitPerimeter=0;" edge="1" parent="1">
          <mxGeometry relative="1" as="geometry">
            <mxPoint x="465.96000000000004" y="210" as="sourcePoint" />
            <mxPoint x="466" y="250" as="targetPoint" />
          </mxGeometry>
        </mxCell>
        <mxCell id="u0RIgtBWJ2dXWDYmUzBz-93" value="" style="verticalLabelPosition=bottom;verticalAlign=top;html=1;shape=mxgraph.flowchart.on-page_reference;labelBackgroundColor=#FFFFFF;fillStyle=solid;strokeWidth=1;fontSize=10;" vertex="1" parent="1">
          <mxGeometry x="455" y="250" width="20" height="20" as="geometry" />
        </mxCell>
        <mxCell id="u0RIgtBWJ2dXWDYmUzBz-94" value="" style="endArrow=classic;html=1;rounded=0;fontSize=10;exitX=0.5;exitY=1;exitDx=0;exitDy=0;exitPerimeter=0;" edge="1" parent="1" source="u0RIgtBWJ2dXWDYmUzBz-93">
          <mxGeometry width="50" height="50" relative="1" as="geometry">
            <mxPoint x="625" y="490" as="sourcePoint" />
            <mxPoint x="465" y="310" as="targetPoint" />
          </mxGeometry>
        </mxCell>
        <mxCell id="u0RIgtBWJ2dXWDYmUzBz-95" value="" style="endArrow=none;html=1;rounded=0;fontSize=10;exitX=0.104;exitY=1;exitDx=0;exitDy=0;exitPerimeter=0;" edge="1" parent="1">
          <mxGeometry relative="1" as="geometry">
            <mxPoint x="595.96" y="210" as="sourcePoint" />
            <mxPoint x="596" y="250" as="targetPoint" />
          </mxGeometry>
        </mxCell>
        <mxCell id="u0RIgtBWJ2dXWDYmUzBz-96" value="" style="verticalLabelPosition=bottom;verticalAlign=top;html=1;shape=mxgraph.flowchart.on-page_reference;labelBackgroundColor=#FFFFFF;fillStyle=solid;strokeWidth=1;fontSize=10;" vertex="1" parent="1">
          <mxGeometry x="585" y="250" width="20" height="20" as="geometry" />
        </mxCell>
        <mxCell id="u0RIgtBWJ2dXWDYmUzBz-97" value="" style="endArrow=classic;html=1;rounded=0;fontSize=10;exitX=0.5;exitY=1;exitDx=0;exitDy=0;exitPerimeter=0;entryX=0.106;entryY=0.007;entryDx=0;entryDy=0;entryPerimeter=0;" edge="1" parent="1" source="u0RIgtBWJ2dXWDYmUzBz-96" target="u0RIgtBWJ2dXWDYmUzBz-40">
          <mxGeometry width="50" height="50" relative="1" as="geometry">
            <mxPoint x="755" y="490" as="sourcePoint" />
            <mxPoint x="595.2799999999997" y="301.4475000000002" as="targetPoint" />
          </mxGeometry>
        </mxCell>
        <mxCell id="u0RIgtBWJ2dXWDYmUzBz-98" value="" style="endArrow=none;html=1;rounded=0;fontSize=10;exitX=0.104;exitY=1;exitDx=0;exitDy=0;exitPerimeter=0;entryX=0.145;entryY=0.145;entryDx=0;entryDy=0;entryPerimeter=0;" edge="1" parent="1" target="u0RIgtBWJ2dXWDYmUzBz-99">
          <mxGeometry relative="1" as="geometry">
            <mxPoint x="660.96" y="210" as="sourcePoint" />
            <mxPoint x="661" y="250" as="targetPoint" />
          </mxGeometry>
        </mxCell>
        <mxCell id="u0RIgtBWJ2dXWDYmUzBz-99" value="" style="verticalLabelPosition=bottom;verticalAlign=top;html=1;shape=mxgraph.flowchart.on-page_reference;labelBackgroundColor=#FFFFFF;fillStyle=solid;strokeWidth=1;fontSize=10;" vertex="1" parent="1">
          <mxGeometry x="690" y="250" width="20" height="20" as="geometry" />
        </mxCell>
        <mxCell id="u0RIgtBWJ2dXWDYmUzBz-100" value="" style="endArrow=classic;html=1;rounded=0;fontSize=10;exitX=0.821;exitY=0.898;exitDx=0;exitDy=0;exitPerimeter=0;entryX=0.119;entryY=0.001;entryDx=0;entryDy=0;entryPerimeter=0;" edge="1" parent="1" source="u0RIgtBWJ2dXWDYmUzBz-99" target="u0RIgtBWJ2dXWDYmUzBz-41">
          <mxGeometry width="50" height="50" relative="1" as="geometry">
            <mxPoint x="820" y="490" as="sourcePoint" />
            <mxPoint x="708.56" y="300.9537500000001" as="targetPoint" />
          </mxGeometry>
        </mxCell>
        <mxCell id="u0RIgtBWJ2dXWDYmUzBz-101" value="" style="curved=1;endArrow=classic;html=1;rounded=0;fontSize=10;entryX=0.683;entryY=0.033;entryDx=0;entryDy=0;entryPerimeter=0;exitX=0.534;exitY=0.991;exitDx=0;exitDy=0;exitPerimeter=0;" edge="1" parent="1" source="u0RIgtBWJ2dXWDYmUzBz-39" target="u0RIgtBWJ2dXWDYmUzBz-32">
          <mxGeometry width="50" height="50" relative="1" as="geometry">
            <mxPoint x="510" y="380" as="sourcePoint" />
            <mxPoint x="558.0199999999998" y="640.97" as="targetPoint" />
            <Array as="points">
              <mxPoint x="430" y="500" />
            </Array>
          </mxGeometry>
        </mxCell>
        <mxCell id="u0RIgtBWJ2dXWDYmUzBz-105" value="" style="shape=mxgraph.arrows2.wedgeArrow;html=1;bendable=0;startWidth=2.8846153846153832;fillColor=strokeColor;defaultFillColor=invert;defaultGradientColor=invert;rounded=0;fontSize=10;" edge="1" parent="1">
          <mxGeometry width="100" height="100" relative="1" as="geometry">
            <mxPoint x="944.92" y="370" as="sourcePoint" />
            <mxPoint x="950" y="370" as="targetPoint" />
          </mxGeometry>
        </mxCell>
        <mxCell id="u0RIgtBWJ2dXWDYmUzBz-108" value="R" style="text;html=1;resizable=0;autosize=1;align=center;verticalAlign=middle;points=[];rounded=0;labelBackgroundColor=#FFFFFF;fillStyle=solid;strokeWidth=1;fontSize=10;" vertex="1" parent="1">
          <mxGeometry x="320" y="240" width="30" height="30" as="geometry" />
        </mxCell>
        <mxCell id="u0RIgtBWJ2dXWDYmUzBz-109" value="" style="shape=mxgraph.arrows2.wedgeArrow;html=1;bendable=0;startWidth=5.64516129032258;fillColor=strokeColor;defaultFillColor=invert;defaultGradientColor=invert;rounded=0;fontSize=10;" edge="1" parent="1">
          <mxGeometry width="100" height="100" relative="1" as="geometry">
            <mxPoint x="334.92" y="260.00000000000006" as="sourcePoint" />
            <mxPoint x="334.92" y="270.00000000000006" as="targetPoint" />
          </mxGeometry>
        </mxCell>
        <mxCell id="u0RIgtBWJ2dXWDYmUzBz-110" value="R" style="text;html=1;resizable=0;autosize=1;align=center;verticalAlign=middle;points=[];rounded=0;labelBackgroundColor=#FFFFFF;fillStyle=solid;strokeWidth=1;fontSize=10;" vertex="1" parent="1">
          <mxGeometry x="470" y="240" width="30" height="30" as="geometry" />
        </mxCell>
        <mxCell id="u0RIgtBWJ2dXWDYmUzBz-111" value="" style="shape=mxgraph.arrows2.wedgeArrow;html=1;bendable=0;startWidth=5.64516129032258;fillColor=strokeColor;defaultFillColor=invert;defaultGradientColor=invert;rounded=0;fontSize=10;" edge="1" parent="1">
          <mxGeometry width="100" height="100" relative="1" as="geometry">
            <mxPoint x="484.9200000000001" y="260" as="sourcePoint" />
            <mxPoint x="484.9200000000001" y="270" as="targetPoint" />
          </mxGeometry>
        </mxCell>
        <mxCell id="u0RIgtBWJ2dXWDYmUzBz-112" value="R" style="text;html=1;resizable=0;autosize=1;align=center;verticalAlign=middle;points=[];rounded=0;labelBackgroundColor=#FFFFFF;fillStyle=solid;strokeWidth=1;fontSize=10;" vertex="1" parent="1">
          <mxGeometry x="600" y="240" width="30" height="30" as="geometry" />
        </mxCell>
        <mxCell id="u0RIgtBWJ2dXWDYmUzBz-113" value="" style="shape=mxgraph.arrows2.wedgeArrow;html=1;bendable=0;startWidth=5.64516129032258;fillColor=strokeColor;defaultFillColor=invert;defaultGradientColor=invert;rounded=0;fontSize=10;" edge="1" parent="1">
          <mxGeometry width="100" height="100" relative="1" as="geometry">
            <mxPoint x="614.9200000000001" y="260" as="sourcePoint" />
            <mxPoint x="614.9200000000001" y="270" as="targetPoint" />
          </mxGeometry>
        </mxCell>
        <mxCell id="u0RIgtBWJ2dXWDYmUzBz-114" value="R" style="text;html=1;resizable=0;autosize=1;align=center;verticalAlign=middle;points=[];rounded=0;labelBackgroundColor=#FFFFFF;fillStyle=solid;strokeWidth=1;fontSize=10;" vertex="1" parent="1">
          <mxGeometry x="710" y="240" width="30" height="30" as="geometry" />
        </mxCell>
        <mxCell id="u0RIgtBWJ2dXWDYmUzBz-115" value="" style="shape=mxgraph.arrows2.wedgeArrow;html=1;bendable=0;startWidth=5.64516129032258;fillColor=strokeColor;defaultFillColor=invert;defaultGradientColor=invert;rounded=0;fontSize=10;" edge="1" parent="1">
          <mxGeometry width="100" height="100" relative="1" as="geometry">
            <mxPoint x="724.9200000000001" y="260" as="sourcePoint" />
            <mxPoint x="724.9200000000001" y="270" as="targetPoint" />
          </mxGeometry>
        </mxCell>
        <mxCell id="u0RIgtBWJ2dXWDYmUzBz-116" value="R" style="text;html=1;resizable=0;autosize=1;align=center;verticalAlign=middle;points=[];rounded=0;labelBackgroundColor=#FFFFFF;fillStyle=solid;strokeWidth=1;fontSize=10;" vertex="1" parent="1">
          <mxGeometry x="210" y="240" width="30" height="30" as="geometry" />
        </mxCell>
        <mxCell id="u0RIgtBWJ2dXWDYmUzBz-117" value="" style="shape=mxgraph.arrows2.wedgeArrow;html=1;bendable=0;startWidth=5.64516129032258;fillColor=strokeColor;defaultFillColor=invert;defaultGradientColor=invert;rounded=0;fontSize=10;" edge="1" parent="1">
          <mxGeometry width="100" height="100" relative="1" as="geometry">
            <mxPoint x="224.92000000000007" y="260" as="sourcePoint" />
            <mxPoint x="224.92000000000007" y="270" as="targetPoint" />
          </mxGeometry>
        </mxCell>
        <mxCell id="u0RIgtBWJ2dXWDYmUzBz-33" value="Orders" style="ellipse;whiteSpace=wrap;html=1;labelBackgroundColor=#FFFFFF;fillStyle=solid;strokeWidth=1;" vertex="1" parent="1">
          <mxGeometry x="550" y="630" width="140" height="50" as="geometry" />
        </mxCell>
        <mxCell id="u0RIgtBWJ2dXWDYmUzBz-34" value="&lt;span style=&quot;font-size: 10px;&quot;&gt;Product Information/availability&lt;/span&gt;" style="ellipse;whiteSpace=wrap;html=1;labelBackgroundColor=#FFFFFF;fillStyle=solid;strokeWidth=1;" vertex="1" parent="1">
          <mxGeometry x="710" y="630" width="140" height="50" as="geometry" />
        </mxCell>
        <mxCell id="u0RIgtBWJ2dXWDYmUzBz-121" value="" style="endArrow=classic;html=1;rounded=0;fontSize=10;exitX=0.968;exitY=1.003;exitDx=0;exitDy=0;exitPerimeter=0;entryX=0.053;entryY=0.277;entryDx=0;entryDy=0;entryPerimeter=0;" edge="1" parent="1" source="u0RIgtBWJ2dXWDYmUzBz-36" target="u0RIgtBWJ2dXWDYmUzBz-30">
          <mxGeometry width="50" height="50" relative="1" as="geometry">
            <mxPoint x="510" y="440" as="sourcePoint" />
            <mxPoint x="560" y="390" as="targetPoint" />
          </mxGeometry>
        </mxCell>
        <mxCell id="u0RIgtBWJ2dXWDYmUzBz-122" value="" style="endArrow=classic;html=1;rounded=0;fontSize=10;exitX=1.003;exitY=0.598;exitDx=0;exitDy=0;exitPerimeter=0;" edge="1" parent="1" source="u0RIgtBWJ2dXWDYmUzBz-124" target="u0RIgtBWJ2dXWDYmUzBz-5">
          <mxGeometry width="50" height="50" relative="1" as="geometry">
            <mxPoint x="940" y="390" as="sourcePoint" />
            <mxPoint x="795.44" y="319.7900000000002" as="targetPoint" />
          </mxGeometry>
        </mxCell>
        <mxCell id="u0RIgtBWJ2dXWDYmUzBz-124" value="" style="verticalLabelPosition=bottom;verticalAlign=top;html=1;shape=mxgraph.flowchart.on-page_reference;labelBackgroundColor=#FFFFFF;fillStyle=solid;strokeWidth=1;fontSize=10;" vertex="1" parent="1">
          <mxGeometry x="920" y="380" width="20" height="20" as="geometry" />
        </mxCell>
        <mxCell id="u0RIgtBWJ2dXWDYmUzBz-125" value="" style="endArrow=none;html=1;rounded=0;fontSize=10;entryX=0.034;entryY=0.304;entryDx=0;entryDy=0;entryPerimeter=0;" edge="1" parent="1" target="u0RIgtBWJ2dXWDYmUzBz-124">
          <mxGeometry relative="1" as="geometry">
            <mxPoint x="900" y="370" as="sourcePoint" />
            <mxPoint x="671" y="260" as="targetPoint" />
          </mxGeometry>
        </mxCell>
        <mxCell id="u0RIgtBWJ2dXWDYmUzBz-40" value="Order Tracking" style="rounded=0;whiteSpace=wrap;html=1;labelBackgroundColor=#FFFFFF;fillStyle=solid;strokeWidth=1;" vertex="1" parent="1">
          <mxGeometry x="580" y="310" width="140" height="70" as="geometry" />
        </mxCell>
        <mxCell id="u0RIgtBWJ2dXWDYmUzBz-41" value="Order processing/access" style="rounded=0;whiteSpace=wrap;html=1;labelBackgroundColor=#FFFFFF;fillStyle=solid;strokeWidth=1;" vertex="1" parent="1">
          <mxGeometry x="730" y="310" width="140" height="70" as="geometry" />
        </mxCell>
        <mxCell id="u0RIgtBWJ2dXWDYmUzBz-127" value="" style="curved=1;endArrow=classic;html=1;rounded=0;fontSize=10;entryX=0.594;entryY=0.009;entryDx=0;entryDy=0;entryPerimeter=0;exitX=0.506;exitY=1.004;exitDx=0;exitDy=0;exitPerimeter=0;" edge="1" parent="1" source="u0RIgtBWJ2dXWDYmUzBz-40" target="u0RIgtBWJ2dXWDYmUzBz-33">
          <mxGeometry width="50" height="50" relative="1" as="geometry">
            <mxPoint x="652.3800000000002" y="377.7199999999999" as="sourcePoint" />
            <mxPoint x="633.2400000000004" y="630.0000000000001" as="targetPoint" />
            <Array as="points">
              <mxPoint x="577.62" y="498.35" />
            </Array>
          </mxGeometry>
        </mxCell>
        <mxCell id="u0RIgtBWJ2dXWDYmUzBz-126" value="" style="curved=1;endArrow=classic;html=1;rounded=0;fontSize=10;entryX=0.5;entryY=1;entryDx=0;entryDy=0;exitX=0.779;exitY=0.053;exitDx=0;exitDy=0;exitPerimeter=0;" edge="1" parent="1">
          <mxGeometry width="50" height="50" relative="1" as="geometry">
            <mxPoint x="650" y="632.6500000000001" as="sourcePoint" />
            <mxPoint x="660.94" y="380" as="targetPoint" />
            <Array as="points">
              <mxPoint x="720.94" y="520" />
            </Array>
          </mxGeometry>
        </mxCell>
        <mxCell id="u0RIgtBWJ2dXWDYmUzBz-128" value="" style="curved=1;endArrow=classic;html=1;rounded=0;fontSize=10;entryX=0.905;entryY=0;entryDx=0;entryDy=0;entryPerimeter=0;exitX=0.506;exitY=1.004;exitDx=0;exitDy=0;exitPerimeter=0;" edge="1" parent="1" target="u0RIgtBWJ2dXWDYmUzBz-64">
          <mxGeometry width="50" height="50" relative="1" as="geometry">
            <mxPoint x="793.2200000000001" y="379.83" as="sourcePoint" />
            <mxPoint x="775.5399999999998" y="630" as="targetPoint" />
            <Array as="points">
              <mxPoint x="720" y="497.90000000000003" />
            </Array>
          </mxGeometry>
        </mxCell>
        <mxCell id="u0RIgtBWJ2dXWDYmUzBz-129" value="" style="curved=1;endArrow=classic;html=1;rounded=0;fontSize=10;entryX=0.5;entryY=1;entryDx=0;entryDy=0;exitX=0.764;exitY=0.073;exitDx=0;exitDy=0;exitPerimeter=0;" edge="1" parent="1" source="u0RIgtBWJ2dXWDYmUzBz-63">
          <mxGeometry width="50" height="50" relative="1" as="geometry">
            <mxPoint x="789.06" y="632.6500000000001" as="sourcePoint" />
            <mxPoint x="800" y="380" as="targetPoint" />
            <Array as="points">
              <mxPoint x="860" y="520" />
            </Array>
          </mxGeometry>
        </mxCell>
        <mxCell id="u0RIgtBWJ2dXWDYmUzBz-135" value="" style="curved=1;endArrow=classic;html=1;rounded=0;fontSize=10;entryX=0.675;entryY=0.03;entryDx=0;entryDy=0;entryPerimeter=0;exitX=0.577;exitY=1;exitDx=0;exitDy=0;exitPerimeter=0;" edge="1" parent="1" source="u0RIgtBWJ2dXWDYmUzBz-35" target="u0RIgtBWJ2dXWDYmUzBz-43">
          <mxGeometry width="50" height="50" relative="1" as="geometry">
            <mxPoint x="574.8000000000002" y="400.4937500000001" as="sourcePoint" />
            <mxPoint x="567.3199999999998" y="650.1700000000001" as="targetPoint" />
            <Array as="points">
              <mxPoint x="530" y="430" />
            </Array>
          </mxGeometry>
        </mxCell>
        <mxCell id="u0RIgtBWJ2dXWDYmUzBz-137" value="" style="edgeStyle=segmentEdgeStyle;endArrow=classic;html=1;rounded=0;fontSize=10;exitX=0;exitY=0.5;exitDx=0;exitDy=0;entryX=0;entryY=0.565;entryDx=0;entryDy=0;entryPerimeter=0;" edge="1" parent="1" source="u0RIgtBWJ2dXWDYmUzBz-27" target="u0RIgtBWJ2dXWDYmUzBz-35">
          <mxGeometry width="50" height="50" relative="1" as="geometry">
            <mxPoint x="140" y="620" as="sourcePoint" />
            <mxPoint x="80" y="360" as="targetPoint" />
            <Array as="points">
              <mxPoint x="80" y="650" />
              <mxPoint x="80" y="358" />
            </Array>
          </mxGeometry>
        </mxCell>
        <mxCell id="u0RIgtBWJ2dXWDYmUzBz-140" value="" style="curved=1;endArrow=classic;html=1;rounded=0;fontSize=10;entryX=0.638;entryY=0.017;entryDx=0;entryDy=0;entryPerimeter=0;exitX=0.696;exitY=0.039;exitDx=0;exitDy=0;exitPerimeter=0;" edge="1" parent="1" source="u0RIgtBWJ2dXWDYmUzBz-43">
          <mxGeometry width="50" height="50" relative="1" as="geometry">
            <mxPoint x="584.86" y="441.04999999999995" as="sourcePoint" />
            <mxPoint x="580.04" y="410" as="targetPoint" />
            <Array as="points">
              <mxPoint x="610" y="430" />
            </Array>
          </mxGeometry>
        </mxCell>
        <mxCell id="u0RIgtBWJ2dXWDYmUzBz-142" value="Create/edit user account" style="whiteSpace=wrap;html=1;aspect=fixed;labelBackgroundColor=#FFFFFF;fillStyle=solid;strokeWidth=1;fontSize=10;fillColor=default;strokeColor=none;" vertex="1" parent="1">
          <mxGeometry x="410" y="235" width="40" height="40" as="geometry" />
        </mxCell>
        <mxCell id="u0RIgtBWJ2dXWDYmUzBz-143" value="Interact for personalised support" style="whiteSpace=wrap;html=1;aspect=fixed;labelBackgroundColor=#FFFFFF;fillStyle=solid;strokeWidth=1;fontSize=10;fillColor=default;strokeColor=none;" vertex="1" parent="1">
          <mxGeometry x="140" y="235" width="40" height="40" as="geometry" />
        </mxCell>
        <mxCell id="u0RIgtBWJ2dXWDYmUzBz-151" value="&lt;font color=&quot;#b1ddf0&quot; style=&quot;font-size: 12px;&quot;&gt;Client&lt;/font&gt;" style="text;html=1;resizable=0;autosize=1;align=center;verticalAlign=middle;points=[];fillColor=#b1ddf0;strokeColor=none;rounded=0;labelBackgroundColor=#b1ddf0;fillStyle=solid;strokeWidth=1;fontSize=10;" vertex="1" parent="1">
          <mxGeometry x="210" y="175" width="50" height="30" as="geometry" />
        </mxCell>
        <mxCell id="u0RIgtBWJ2dXWDYmUzBz-154" value="Track orders" style="whiteSpace=wrap;html=1;aspect=fixed;labelBackgroundColor=#FFFFFF;fillStyle=solid;strokeWidth=1;fontSize=10;fillColor=default;strokeColor=none;" vertex="1" parent="1">
          <mxGeometry x="540" y="235" width="40" height="40" as="geometry" />
        </mxCell>
        <mxCell id="u0RIgtBWJ2dXWDYmUzBz-156" value="Place orders/check availability" style="whiteSpace=wrap;html=1;aspect=fixed;labelBackgroundColor=#FFFFFF;fillStyle=solid;strokeWidth=1;fontSize=10;fillColor=default;strokeColor=none;" vertex="1" parent="1">
          <mxGeometry x="700" y="210" width="40" height="40" as="geometry" />
        </mxCell>
        <mxCell id="u0RIgtBWJ2dXWDYmUzBz-157" value="Access third party services" style="whiteSpace=wrap;html=1;aspect=fixed;labelBackgroundColor=#FFFFFF;fillStyle=solid;strokeWidth=1;fontSize=10;fillColor=default;strokeColor=none;" vertex="1" parent="1">
          <mxGeometry x="920" y="410" width="40" height="40" as="geometry" />
        </mxCell>
        <mxCell id="u0RIgtBWJ2dXWDYmUzBz-158" value="&lt;font color=&quot;#b1ddf0&quot; style=&quot;font-size: 12px;&quot;&gt;Client&lt;/font&gt;" style="text;html=1;resizable=0;autosize=1;align=center;verticalAlign=middle;points=[];fillColor=#b1ddf0;strokeColor=none;rounded=0;labelBackgroundColor=#b1ddf0;fillStyle=solid;strokeWidth=1;fontSize=10;" vertex="1" parent="1">
          <mxGeometry x="280" y="175" width="50" height="30" as="geometry" />
        </mxCell>
        <mxCell id="u0RIgtBWJ2dXWDYmUzBz-159" value="&lt;font color=&quot;#b1ddf0&quot; style=&quot;font-size: 12px;&quot;&gt;Client&lt;/font&gt;" style="text;html=1;resizable=0;autosize=1;align=center;verticalAlign=middle;points=[];fillColor=#b1ddf0;strokeColor=none;rounded=0;labelBackgroundColor=#b1ddf0;fillStyle=solid;strokeWidth=1;fontSize=10;" vertex="1" parent="1">
          <mxGeometry x="570" y="175" width="50" height="30" as="geometry" />
        </mxCell>
        <mxCell id="u0RIgtBWJ2dXWDYmUzBz-161" value="Personalise service support" style="whiteSpace=wrap;html=1;aspect=fixed;labelBackgroundColor=#FFFFFF;fillStyle=solid;strokeWidth=1;fontSize=10;fillColor=default;strokeColor=none;" vertex="1" parent="1">
          <mxGeometry x="260" y="235" width="40" height="40" as="geometry" />
        </mxCell>
        <mxCell id="u0RIgtBWJ2dXWDYmUzBz-90" value="" style="verticalLabelPosition=bottom;verticalAlign=top;html=1;shape=mxgraph.flowchart.on-page_reference;labelBackgroundColor=#FFFFFF;fillStyle=solid;strokeWidth=1;fontSize=10;" vertex="1" parent="1">
          <mxGeometry x="305" y="250" width="20" height="20" as="geometry" />
        </mxCell>
        <mxCell id="u0RIgtBWJ2dXWDYmUzBz-162" value="&lt;font style=&quot;font-size: 14px;&quot; color=&quot;#000000&quot;&gt;&lt;b&gt;ERP&lt;/b&gt;&lt;/font&gt;" style="text;html=1;resizable=0;autosize=1;align=center;verticalAlign=middle;points=[];fillColor=none;strokeColor=none;rounded=0;labelBackgroundColor=#b1ddf0;fillStyle=solid;strokeWidth=1;fontSize=14;fontColor=#b1ddf0;" vertex="1" parent="1">
          <mxGeometry x="500" y="575" width="50" height="30" as="geometry" />
        </mxCell>
        <mxCell id="u0RIgtBWJ2dXWDYmUzBz-102" value="" style="curved=1;endArrow=classic;html=1;rounded=0;fontSize=10;entryX=0.5;entryY=1;entryDx=0;entryDy=0;exitX=0.77;exitY=0.072;exitDx=0;exitDy=0;exitPerimeter=0;" edge="1" parent="1" source="u0RIgtBWJ2dXWDYmUzBz-32">
          <mxGeometry width="50" height="50" relative="1" as="geometry">
            <mxPoint x="480" y="630" as="sourcePoint" />
            <mxPoint x="510" y="380" as="targetPoint" />
            <Array as="points">
              <mxPoint x="570" y="520" />
            </Array>
          </mxGeometry>
        </mxCell>
        <mxCell id="u0RIgtBWJ2dXWDYmUzBz-164" value="" style="endArrow=classic;html=1;rounded=0;fontSize=10;exitX=0.968;exitY=1.003;exitDx=0;exitDy=0;exitPerimeter=0;entryX=0.276;entryY=0.054;entryDx=0;entryDy=0;entryPerimeter=0;" edge="1" parent="1" target="u0RIgtBWJ2dXWDYmUzBz-27">
          <mxGeometry width="50" height="50" relative="1" as="geometry">
            <mxPoint x="373.1000000000002" y="380.00000000000006" as="sourcePoint" />
            <mxPoint x="370" y="580" as="targetPoint" />
          </mxGeometry>
        </mxCell>
      </root>
    </mxGraphModel>
  </diagram>
</mxfile>
